<svg width="48" height="48" viewBox="0 0 48 48" fill="none" xmlns="http://www.w3.org/2000/svg">
<path d="M38 18L26 6M38 18H32.4C30.1598 18 29.0397 18 28.184 17.564C27.4314 17.1805 26.8195 16.5686 26.436 15.816C26 14.9603 26 13.8402 26 11.6V6M38 18V20M26 6H16.4C14.1598 6 13.0397 6 12.184 6.43597C11.4314 6.81947 10.8195 7.43139 10.436 8.18404C10 9.03968 10 10.1598 10 12.4V35.6C10 37.8402 10 38.9603 10.436 39.816C10.8195 40.5686 11.4314 41.1805 12.184 41.564C13.0397 42 14.1598 42 16.4 42H28M32 31.0045C32.3524 30.0027 33.0479 29.158 33.9635 28.62C34.879 28.0819 35.9554 27.8852 37.002 28.0647C38.0487 28.2443 38.998 28.7884 39.6819 29.6008C40.3658 30.4132 40.7401 31.4414 40.7385 32.5034C40.7385 35.5011 36.2418 37 36.2418 37M36 42H36.02" stroke="#4D6AB6" stroke-width="2" stroke-linecap="round" stroke-linejoin="round"/>
</svg>
